<svg width="38" height="27" viewBox="0 0 38 27" fill="none" xmlns="http://www.w3.org/2000/svg">
<path d="M0.664062 26.8334V22.1667C0.664062 21.2222 0.907118 20.3542 1.39323 19.5625C1.87934 18.7709 2.52517 18.1667 3.33073 17.75C5.05295 16.8889 6.80295 16.2431 8.58073 15.8125C10.3585 15.382 12.1641 15.1667 13.9974 15.1667C15.8307 15.1667 17.6363 15.382 19.4141 15.8125C21.1918 16.2431 22.9418 16.8889 24.6641 17.75C25.4696 18.1667 26.1155 18.7709 26.6016 19.5625C27.0877 20.3542 27.3307 21.2222 27.3307 22.1667V26.8334H0.664062ZM30.6641 26.8334V21.8334C30.6641 20.6111 30.3238 19.4375 29.6432 18.3125C28.9627 17.1875 27.9974 16.2222 26.7474 15.4167C28.1641 15.5834 29.4974 15.8681 30.7474 16.2709C31.9974 16.6736 33.1641 17.1667 34.2474 17.75C35.2474 18.3056 36.0113 18.9236 36.5391 19.6042C37.0668 20.2847 37.3307 21.0278 37.3307 21.8334V26.8334H30.6641ZM13.9974 13.5C12.1641 13.5 10.5946 12.8472 9.28906 11.5417C7.98351 10.2361 7.33073 8.66669 7.33073 6.83335C7.33073 5.00002 7.98351 3.43058 9.28906 2.12502C10.5946 0.819465 12.1641 0.166687 13.9974 0.166687C15.8307 0.166687 17.4002 0.819465 18.7057 2.12502C20.0113 3.43058 20.6641 5.00002 20.6641 6.83335C20.6641 8.66669 20.0113 10.2361 18.7057 11.5417C17.4002 12.8472 15.8307 13.5 13.9974 13.5ZM30.6641 6.83335C30.6641 8.66669 30.0113 10.2361 28.7057 11.5417C27.4002 12.8472 25.8307 13.5 23.9974 13.5C23.6918 13.5 23.303 13.4653 22.8307 13.3959C22.3585 13.3264 21.9696 13.25 21.6641 13.1667C22.4141 12.2778 22.9905 11.2917 23.3932 10.2084C23.796 9.12502 23.9974 8.00002 23.9974 6.83335C23.9974 5.66669 23.796 4.54169 23.3932 3.45835C22.9905 2.37502 22.4141 1.38891 21.6641 0.50002C22.053 0.361131 22.4418 0.270854 22.8307 0.229187C23.2196 0.18752 23.6085 0.166687 23.9974 0.166687C25.8307 0.166687 27.4002 0.819465 28.7057 2.12502C30.0113 3.43058 30.6641 5.00002 30.6641 6.83335ZM3.9974 23.5H23.9974V22.1667C23.9974 21.8611 23.921 21.5834 23.7682 21.3334C23.6155 21.0834 23.4141 20.8889 23.1641 20.75C21.6641 20 20.1502 19.4375 18.6224 19.0625C17.0946 18.6875 15.553 18.5 13.9974 18.5C12.4418 18.5 10.9002 18.6875 9.3724 19.0625C7.84462 19.4375 6.33073 20 4.83073 20.75C4.58073 20.8889 4.37934 21.0834 4.22656 21.3334C4.07378 21.5834 3.9974 21.8611 3.9974 22.1667V23.5ZM13.9974 10.1667C14.9141 10.1667 15.6988 9.8403 16.3516 9.18752C17.0043 8.53474 17.3307 7.75002 17.3307 6.83335C17.3307 5.91669 17.0043 5.13197 16.3516 4.47919C15.6988 3.82641 14.9141 3.50002 13.9974 3.50002C13.0807 3.50002 12.296 3.82641 11.6432 4.47919C10.9905 5.13197 10.6641 5.91669 10.6641 6.83335C10.6641 7.75002 10.9905 8.53474 11.6432 9.18752C12.296 9.8403 13.0807 10.1667 13.9974 10.1667Z" fill="#A7A0F8"/>
</svg>
