<svg width="38" height="40" viewBox="0 0 38 40" fill="none" xmlns="http://www.w3.org/2000/svg">
<path d="M15 6.07154L15.0001 5.01285C15.1771 4.88457 15.3712 4.77499 15.6219 4.67399C16.1816 4.44848 17.17 4.21429 19.0001 4.21429C20.8301 4.21429 21.8185 4.4485 22.3782 4.67401C22.6289 4.77499 22.823 4.88457 23 5.01283V6.07143H27V3.46775L26.4436 2.92891C25.9586 2.45929 25.2351 1.77619 23.9704 1.26664C22.7473 0.773842 21.17 0.5 19.0001 0.5C16.8302 0.5 15.2529 0.773821 14.0298 1.26661C12.7651 1.77614 12.0416 2.45924 11.5565 2.92895L11.0002 3.46773L11 6.07132L15 6.07154Z" fill="#A7A0F8"/>
<path fill-rule="evenodd" clip-rule="evenodd" d="M12.5174 9.78571H25.4826C27.0925 9.78569 28.4213 9.78567 29.5037 9.86779C30.6278 9.95308 31.6613 10.1361 32.6319 10.5954C34.1372 11.3076 35.3611 12.444 36.1281 13.8418C36.6226 14.7431 36.8198 15.7027 36.9116 16.7466C37 17.7517 37 18.9855 37 20.4804V28.8053C37 30.3002 37 31.534 36.9116 32.5391C36.8198 33.583 36.6226 34.5426 36.1281 35.4439C35.3611 36.8417 34.1372 37.9781 32.6319 38.6903C31.6613 39.1496 30.6278 39.3326 29.5037 39.4179C28.4213 39.5 27.0927 39.5 25.4829 39.5H12.5175C10.9077 39.5 9.57867 39.5 8.49635 39.4179C7.37216 39.3326 6.33875 39.1496 5.36808 38.6903C3.86278 37.9781 2.63894 36.8417 1.87195 35.4439C1.37737 34.5426 1.18024 33.583 1.08839 32.5391C0.999957 31.534 0.999977 30.3002 1 28.8053V20.4804C0.999977 18.9855 0.999957 17.7517 1.08839 16.7466C1.18024 15.7027 1.37737 14.7431 1.87195 13.8418C2.63894 12.444 3.86278 11.3076 5.36808 10.5954C6.33875 10.1361 7.37216 9.95308 8.49635 9.86779C9.57874 9.78567 10.9075 9.78569 12.5174 9.78571ZM19.0011 32.0714C16.6195 32.0726 14.1868 31.5051 11.8001 29.8429L14.2001 26.8714C15.8133 27.9949 17.3772 28.358 18.999 28.3571C20.6207 28.3563 22.1881 27.994 23.8 26.8714L26.2 29.8429C23.812 31.506 21.3759 32.0702 19.0011 32.0714ZM12 19.0714C10.3431 19.0714 9 20.3186 9 21.8571C9 23.3956 10.3431 24.6429 12 24.6429C13.6569 24.6429 15 23.3956 15 21.8571C15 20.3186 13.6569 19.0714 12 19.0714ZM23 21.8571C23 20.3186 24.3431 19.0714 26 19.0714C27.6569 19.0714 29 20.3186 29 21.8571C29 23.3956 27.6569 24.6429 26 24.6429C24.3431 24.6429 23 23.3956 23 21.8571Z" fill="#A7A0F8"/>
<path d="M15 6.07154L15.0001 5.01285C15.1771 4.88457 15.3712 4.77499 15.6219 4.67399C16.1816 4.44848 17.17 4.21429 19.0001 4.21429C20.8301 4.21429 21.8185 4.4485 22.3782 4.67401C22.6289 4.77499 22.823 4.88457 23 5.01283V6.07143H27V3.46775L26.4436 2.92891C25.9586 2.45929 25.2351 1.77619 23.9704 1.26664C22.7473 0.773842 21.17 0.5 19.0001 0.5C16.8302 0.5 15.2529 0.773821 14.0298 1.26661C12.7651 1.77614 12.0416 2.45924 11.5565 2.92895L11.0002 3.46773L11 6.07132L15 6.07154Z" stroke="black"/>
<path fill-rule="evenodd" clip-rule="evenodd" d="M12.5174 9.78571H25.4826C27.0925 9.78569 28.4213 9.78567 29.5037 9.86779C30.6278 9.95308 31.6613 10.1361 32.6319 10.5954C34.1372 11.3076 35.3611 12.444 36.1281 13.8418C36.6226 14.7431 36.8198 15.7027 36.9116 16.7466C37 17.7517 37 18.9855 37 20.4804V28.8053C37 30.3002 37 31.534 36.9116 32.5391C36.8198 33.583 36.6226 34.5426 36.1281 35.4439C35.3611 36.8417 34.1372 37.9781 32.6319 38.6903C31.6613 39.1496 30.6278 39.3326 29.5037 39.4179C28.4213 39.5 27.0927 39.5 25.4829 39.5H12.5175C10.9077 39.5 9.57867 39.5 8.49635 39.4179C7.37216 39.3326 6.33875 39.1496 5.36808 38.6903C3.86278 37.9781 2.63894 36.8417 1.87195 35.4439C1.37737 34.5426 1.18024 33.583 1.08839 32.5391C0.999957 31.534 0.999977 30.3002 1 28.8053V20.4804C0.999977 18.9855 0.999957 17.7517 1.08839 16.7466C1.18024 15.7027 1.37737 14.7431 1.87195 13.8418C2.63894 12.444 3.86278 11.3076 5.36808 10.5954C6.33875 10.1361 7.37216 9.95308 8.49635 9.86779C9.57874 9.78567 10.9075 9.78569 12.5174 9.78571ZM19.0011 32.0714C16.6195 32.0726 14.1868 31.5051 11.8001 29.8429L14.2001 26.8714C15.8133 27.9949 17.3772 28.358 18.999 28.3571C20.6207 28.3563 22.1881 27.994 23.8 26.8714L26.2 29.8429C23.812 31.506 21.3759 32.0702 19.0011 32.0714ZM12 19.0714C10.3431 19.0714 9 20.3186 9 21.8571C9 23.3956 10.3431 24.6429 12 24.6429C13.6569 24.6429 15 23.3956 15 21.8571C15 20.3186 13.6569 19.0714 12 19.0714ZM23 21.8571C23 20.3186 24.3431 19.0714 26 19.0714C27.6569 19.0714 29 20.3186 29 21.8571C29 23.3956 27.6569 24.6429 26 24.6429C24.3431 24.6429 23 23.3956 23 21.8571Z" stroke="black"/>
</svg>
